<?xml version="1.0" encoding="UTF-8" standalone="no"?>
<!DOCTYPE svg PUBLIC "-//W3C//DTD SVG 1.1//EN"
 "http://www.w3.org/Graphics/SVG/1.1/DTD/svg11.dtd">
<!-- Generated by graphviz version 2.43.0 (0)
 -->
<!-- Title: Dealflow_AI_Architecture Pages: 1 -->
<svg width="576pt" height="501pt"
 viewBox="0.00 0.00 576.00 500.93" xmlns="http://www.w3.org/2000/svg" xmlns:xlink="http://www.w3.org/1999/xlink">
<g id="graph0" class="graph" transform="scale(0.88 0.88) rotate(0) translate(4 562.25)">
<title>Dealflow_AI_Architecture</title>
<polygon fill="white" stroke="transparent" points="-4,4 -4,-562.25 647.11,-562.25 647.11,4 -4,4"/>
<!-- Neo4j -->
<g id="node1" class="node">
<title>Neo4j</title>
<path fill="lightblue" stroke="lightblue" d="M329.5,-553.6C329.5,-556.24 265.18,-558.38 186,-558.38 106.82,-558.38 42.5,-556.24 42.5,-553.6 42.5,-553.6 42.5,-510.65 42.5,-510.65 42.5,-508.01 106.82,-505.87 186,-505.87 265.18,-505.87 329.5,-508.01 329.5,-510.65 329.5,-510.65 329.5,-553.6 329.5,-553.6"/>
<path fill="none" stroke="lightblue" d="M329.5,-553.6C329.5,-550.97 265.18,-548.83 186,-548.83 106.82,-548.83 42.5,-550.97 42.5,-553.6"/>
<text text-anchor="middle" x="186" y="-535.92" font-family="Times,serif" font-size="14.00">Neo4j AuraDB</text>
<text text-anchor="middle" x="186" y="-520.92" font-family="Times,serif" font-size="14.00">(Startups, Investors, FundingRounds)</text>
</g>
<!-- GDS -->
<g id="node2" class="node">
<title>GDS</title>
<polygon fill="lightyellow" stroke="lightyellow" points="206,-455 0,-455 0,-372 206,-372 206,-455"/>
<text text-anchor="middle" x="103" y="-439.8" font-family="Times,serif" font-size="14.00">Graph Data Science (GDS)</text>
<text text-anchor="middle" x="103" y="-424.8" font-family="Times,serif" font-size="14.00">&#45; PageRank</text>
<text text-anchor="middle" x="103" y="-409.8" font-family="Times,serif" font-size="14.00">&#45; Louvain</text>
<text text-anchor="middle" x="103" y="-394.8" font-family="Times,serif" font-size="14.00">&#45; Similarity</text>
<text text-anchor="middle" x="103" y="-379.8" font-family="Times,serif" font-size="14.00">&#45; Centrality</text>
</g>
<!-- Neo4j&#45;&gt;GDS -->
<g id="edge1" class="edge">
<title>Neo4j&#45;&gt;GDS</title>
<path fill="none" stroke="black" d="M167.99,-505.82C159.22,-493.5 148.37,-478.25 138.06,-463.76"/>
<polygon fill="black" stroke="black" points="140.72,-461.46 132.07,-455.35 135.02,-465.52 140.72,-461.46"/>
<text text-anchor="middle" x="195.5" y="-476.8" font-family="Times,serif" font-size="14.00">Graph data</text>
</g>
<!-- Backend -->
<g id="node3" class="node">
<title>Backend</title>
<polygon fill="lightgreen" stroke="lightgreen" points="382,-321 128,-321 128,-238 382,-238 382,-321"/>
<text text-anchor="middle" x="255" y="-305.8" font-family="Times,serif" font-size="14.00">Backend API (Node.js + Express)</text>
<text text-anchor="middle" x="255" y="-290.8" font-family="Times,serif" font-size="14.00">&#45; /startups</text>
<text text-anchor="middle" x="255" y="-275.8" font-family="Times,serif" font-size="14.00">&#45; /investors</text>
<text text-anchor="middle" x="255" y="-260.8" font-family="Times,serif" font-size="14.00">&#45; /graph&#45;insights</text>
<text text-anchor="middle" x="255" y="-245.8" font-family="Times,serif" font-size="14.00">&#45; /ai&#45;query</text>
</g>
<!-- Neo4j&#45;&gt;Backend -->
<g id="edge2" class="edge">
<title>Neo4j&#45;&gt;Backend</title>
<path fill="none" stroke="black" d="M225.8,-505.95C231.42,-500.7 236.48,-494.69 240,-488 265.54,-439.47 266.06,-375.52 262.26,-331.51"/>
<polygon fill="black" stroke="black" points="265.72,-330.94 261.27,-321.33 258.75,-331.62 265.72,-330.94"/>
<text text-anchor="middle" x="319" y="-409.8" font-family="Times,serif" font-size="14.00">Cypher queries</text>
</g>
<!-- GDS&#45;&gt;Backend -->
<g id="edge3" class="edge">
<title>GDS&#45;&gt;Backend</title>
<path fill="none" stroke="black" d="M85.2,-371.88C82.88,-360.44 83.27,-348.53 90,-339 97.76,-328.02 107.76,-319.09 118.99,-311.83"/>
<polygon fill="black" stroke="black" points="121,-314.71 127.81,-306.59 117.43,-308.69 121,-314.71"/>
<text text-anchor="middle" x="165.5" y="-342.8" font-family="Times,serif" font-size="14.00">Insights (algorithms)</text>
</g>
<!-- Frontend -->
<g id="node4" class="node">
<title>Frontend</title>
<polygon fill="lightpink" stroke="lightpink" points="295.5,-187 58.5,-187 58.5,-119 295.5,-119 295.5,-187"/>
<text text-anchor="middle" x="177" y="-171.8" font-family="Times,serif" font-size="14.00">Frontend (React + TypeScript)</text>
<text text-anchor="middle" x="177" y="-156.8" font-family="Times,serif" font-size="14.00">&#45; Dashboard</text>
<text text-anchor="middle" x="177" y="-141.8" font-family="Times,serif" font-size="14.00">&#45; Graph Visualization</text>
<text text-anchor="middle" x="177" y="-126.8" font-family="Times,serif" font-size="14.00">&#45; AI Assistant</text>
</g>
<!-- Backend&#45;&gt;Frontend -->
<g id="edge5" class="edge">
<title>Backend&#45;&gt;Frontend</title>
<path fill="none" stroke="black" d="M229.46,-237.73C221.08,-224.35 211.75,-209.46 203.31,-196"/>
<polygon fill="black" stroke="black" points="206.19,-194 197.91,-187.38 200.26,-197.71 206.19,-194"/>
<text text-anchor="middle" x="235.5" y="-208.8" font-family="Times,serif" font-size="14.00">APIs</text>
</g>
<!-- GCP -->
<g id="node6" class="node">
<title>GCP</title>
<polygon fill="lightgrey" stroke="lightgrey" points="346.5,-68 165.5,-68 161.5,-64 161.5,0 342.5,0 346.5,-4 346.5,-68"/>
<polyline fill="none" stroke="lightgrey" points="342.5,-64 161.5,-64 "/>
<polyline fill="none" stroke="lightgrey" points="342.5,-64 342.5,0 "/>
<polyline fill="none" stroke="lightgrey" points="342.5,-64 346.5,-68 "/>
<text text-anchor="middle" x="254" y="-52.8" font-family="Times,serif" font-size="14.00">Deployment on GCP</text>
<text text-anchor="middle" x="254" y="-37.8" font-family="Times,serif" font-size="14.00">&#45; Cloud Run</text>
<text text-anchor="middle" x="254" y="-22.8" font-family="Times,serif" font-size="14.00">&#45; Firebase Hosting</text>
<text text-anchor="middle" x="254" y="-7.8" font-family="Times,serif" font-size="14.00">&#45; Logging &amp; Monitoring</text>
</g>
<!-- Backend&#45;&gt;GCP -->
<g id="edge6" class="edge">
<title>Backend&#45;&gt;GCP</title>
<path fill="none" stroke="black" d="M282.27,-237.9C291.01,-222.62 299.57,-204.65 304,-187 311.35,-157.69 312.02,-148.14 304,-119 299.98,-104.38 292.67,-89.72 284.86,-76.85"/>
<polygon fill="black" stroke="black" points="287.71,-74.81 279.41,-68.24 281.8,-78.56 287.71,-74.81"/>
<text text-anchor="middle" x="335" y="-149.3" font-family="Times,serif" font-size="14.00">Deploy</text>
</g>
<!-- Frontend&#45;&gt;GCP -->
<g id="edge7" class="edge">
<title>Frontend&#45;&gt;GCP</title>
<path fill="none" stroke="black" d="M198.86,-118.79C207.48,-105.69 217.47,-90.51 226.56,-76.69"/>
<polygon fill="black" stroke="black" points="229.51,-78.58 232.09,-68.3 223.67,-74.73 229.51,-78.58"/>
<text text-anchor="middle" x="246" y="-89.8" font-family="Times,serif" font-size="14.00">Deploy</text>
</g>
<!-- AI -->
<g id="node5" class="node">
<title>AI</title>
<ellipse fill="orange" stroke="orange" cx="513" cy="-413.5" rx="130.22" ry="26.74"/>
<text text-anchor="middle" x="513" y="-417.3" font-family="Times,serif" font-size="14.00">LangChain + OpenAI</text>
<text text-anchor="middle" x="513" y="-402.3" font-family="Times,serif" font-size="14.00">(NL → Cypher → Neo4j)</text>
</g>
<!-- AI&#45;&gt;Backend -->
<g id="edge4" class="edge">
<title>AI&#45;&gt;Backend</title>
<path fill="none" stroke="black" d="M465.98,-388.44C431.79,-370.95 384.48,-346.74 343.32,-325.69"/>
<polygon fill="black" stroke="black" points="344.87,-322.55 334.37,-321.11 341.68,-328.78 344.87,-322.55"/>
<text text-anchor="middle" x="482.5" y="-342.8" font-family="Times,serif" font-size="14.00">Natural language queries</text>
</g>
</g>
</svg>
